<?xml version="1.0" encoding="utf-8"?>
<!-- Generator: Adobe Illustrator 20.0.0, SVG Export Plug-In . SVG Version: 6.00 Build 0)  -->
<svg version="1.1" id="Laag_1" xmlns="http://www.w3.org/2000/svg" xmlns:xlink="http://www.w3.org/1999/xlink" x="0px" y="0px"
	 viewBox="0 0 269 269" style="enable-background:new 0 0 269 269;" xml:space="preserve">
<style type="text/css">
	.st0{fill:#DDDDDD;}
</style>
<path d="M263.2,66.7c-16.4-32.6-27.4-50.8-32.9-54.1c-4.3-2.5-11.7-3.2-25.5-4.4c-10.4-0.8-23.2-1.9-29-4.2l-5.3-2l-3.7,4.5
	c-0.3,0.3-13.9,15.9-33.3,15.9c-19.5,0-33.1-15.7-33.3-15.9L96.5,2l-5.4,2.1c-5.8,2.3-18.7,3.3-29,4.2c-13.8,1.1-21.2,1.8-25.5,4.4
	c-5.4,3.2-16.5,21.4-32.9,54.1L2,70.2l1.5,3.6c14.5,34,48.6,41.5,50,41.8l4.6,0.9l-4.6,122.9l-0.2,5.1l4.3,2.5
	c40.9,24,110.9,24,151.8,0l4.3-2.5l-0.2-5.1l-4.6-122.9l4.6-0.9c1.5-0.3,35.5-7.8,50-41.8l1.6-3.6L263.2,66.7"/>
<path class="st0" d="M241.2,79.6c-9.4,12-20.9,18.7-34.3,19.9L199.7,88l5.7,151.9c-39.7,23.3-103.9,23.3-143.6,0L67.5,88l-7,11.2
	C47,98,35.4,91.3,26,79.3c-4.2-5.5-7.7-11.5-10.3-18l-0.3,0.5c7.1-13.8,20.8-39.3,25.2-42c5.4-3.2,32.9-3,48-6.4
	c4,4.2,8.5,7.8,13.3,11.1c4.4,3,9.2,5.5,14.2,7.4c6.1,2.3,12.1,3.4,18.1,3.4h0.2c7.3-0.1,14.4-1.7,21.2-5.1
	c7.5-3.7,14.7-9.4,21.4-17c15,3.6,43.4,3.4,48.9,6.6c4.4,2.7,18,28.1,25.2,41.9C248.8,68.1,245.4,74.1,241.2,79.6"/>
</svg>
